<?xml version="1.0" standalone="no"?><svg xmlns:xlink="http://www.w3.org/1999/xlink" xmlns="http://www.w3.org/2000/svg" viewBox="0 0 1000 571.4285714285714" preserveAspectRatio="xMaxYMax slice"><g transform="scale(1.1497556769186548)"><rect x="0" y="0" width="869.75" height="497" fill="#49afa9"/><rect x="0" y="0" width="124.25" height="124.25" fill="#49afa9"/><rect x="0" y="0" width="62.13" height="62.13" fill="#56b5af"/><path d="M 0 62.13 A 62.13 62.13 0 0 1  62.13 0 L 0 62.13 A 62.13 62.13 0 0 0 62.13 0" fill="#67bdb7"/><rect x="62.13" y="0" width="62.13" height="62.13" fill="#49afa6"/><path d="M 62.13 62.13 A 62.13 62.13 0 0 1  124.26 0 L 62.13 62.13 A 62.13 62.13 0 0 0 124.26 0" fill="#e2f8f8"/><rect x="0" y="62.13" width="62.13" height="62.13" fill="#49afa4"/><path d="M 0 62.13 A 62.13 62.13 0 0 0 62.13 124.26 L 62.13 62.13" fill="#72c2bc"/><rect x="62.13" y="62.13" width="62.13" height="62.13" fill="#80c9c3"/><path d="M 62.13 62.13 A 62.13 62.13 0 0 0 124.26 124.26 L 124.26 62.13" fill="#49afa8"/><rect x="124.25" y="0" width="124.25" height="124.25" fill="#49afa9"/><rect x="124.25" y="0" width="62.13" height="62.13" fill="#b3e1db"/><path d="M 124.25 0 A 62.13 62.13 0 0 0 186.38 62.13 L 186.38 0" fill="#49afa3"/><rect x="186.38" y="0" width="62.13" height="62.13" fill="#9ed8d5"/><path d="M 186.38 62.13 A 62.13 62.13 0 0 0 248.51 0 L 186.38 0" fill="#b7e4e2"/><rect x="124.25" y="62.13" width="62.13" height="62.13" fill="#49afa4"/><path d="M 124.25 124.26 A 62.13 62.13 0 0 0 186.38 62.13 L 124.25 62.13" fill="#49afa8"/><rect x="186.38" y="62.13" width="62.13" height="62.13" fill="#7dc8c2"/><path d="M 186.38 124.26 A 62.13 62.13 0 0 1  248.51 62.13 L 248.51 124.26" fill="#49afa6"/><rect x="248.5" y="0" width="124.25" height="124.25" fill="#49afa9"/><rect x="248.5" y="0" width="62.13" height="62.13" fill="#e6fbfa"/><path d="M 248.5 0 A 62.13 62.13 0 0 0 310.63 62.13 L 310.63 0" fill="#aaddd7"/><rect x="310.63" y="0" width="62.13" height="62.13" fill="#49afa4"/><path d="M 310.63 62.13 A 62.13 62.13 0 0 1  372.76 0 L 372.76 62.13" fill="#49afa7"/><rect x="248.5" y="62.13" width="62.13" height="62.13" fill="#49afa5"/><path d="M 248.5 124.26 A 62.13 62.13 0 0 0 310.63 62.13 L 248.5 62.13" fill="#def7f6"/><rect x="310.63" y="62.13" width="62.13" height="62.13" fill="#49afa6"/><path d="M 310.63 124.26 A 62.13 62.13 0 0 0 372.76 62.13 L 310.63 62.13" fill="#77c5c1"/><rect x="372.75" y="0" width="124.25" height="124.25" fill="#59b6b0"/><path d="M 372.75 0 A 124.25 124.25 0 0 1 497 124.25 L 372.75 124.25" fill="#69beb8"/><rect x="497" y="0" width="124.25" height="124.25" fill="#63bbb5"/><path d="M 497 0 A 124.25 124.25 0 0 1 621.25 124.25 L 497 124.25" fill="#def7f6"/><rect x="621.25" y="0" width="124.25" height="124.25" fill="#8dd0cd"/><path d="M 621.25 0 A 124.25 124.25 0 0 0 745.5 124.25 L 745.5 0" fill="#e8fbfb"/><rect x="745.5" y="0" width="124.25" height="124.25" fill="#49afa8"/><path d="M 745.5 0 A 124.25 124.25 0 0 0 869.75 124.25 L 869.75 0" fill="#c3eae8"/><rect x="0" y="124.25" width="124.25" height="124.25" fill="#49afa3"/><path d="M 0 124.25 A 124.25 124.25 0 0 1  124.25 248.5 L 0 124.25 A 124.25 124.25 0 0 0 124.25 248.5" fill="#49afa8"/><rect x="124.25" y="124.25" width="124.25" height="124.25" fill="#49afa9"/><rect x="124.25" y="124.25" width="62.13" height="62.13" fill="#bee7e6"/><path d="M 124.25 186.38 A 62.13 62.13 0 0 0 186.38 124.25 L 124.25 124.25" fill="#49afa2"/><rect x="186.38" y="124.25" width="62.13" height="62.13" fill="#49afa8"/><path d="M 186.38 186.38 A 62.13 62.13 0 0 1  248.51 124.25 L 186.38 186.38 A 62.13 62.13 0 0 0 248.51 124.25" fill="#61bab4"/><rect x="124.25" y="186.38" width="62.13" height="62.13" fill="#9fd8d6"/><path d="M 124.25 186.38 A 62.13 62.13 0 0 0 186.38 248.51 L 186.38 186.38" fill="#9bd6d3"/><rect x="186.38" y="186.38" width="62.13" height="62.13" fill="#49afa6"/><path d="M 186.38 186.38 A 62.13 62.13 0 0 0 248.51 248.51 L 248.51 186.38" fill="#b3e1db"/><rect x="248.5" y="124.25" width="124.25" height="124.25" fill="#49afa9"/><rect x="248.5" y="124.25" width="62.13" height="62.13" fill="#66bdb7"/><path d="M 248.5 186.38 A 62.13 62.13 0 0 1  310.63 124.25 L 310.63 186.38" fill="#c5ebe9"/><rect x="310.63" y="124.25" width="62.13" height="62.13" fill="#49afa6"/><path d="M 310.63 124.25 A 62.13 62.13 0 0 0 372.76 186.38 L 372.76 124.25" fill="#b1e0da"/><rect x="248.5" y="186.38" width="62.13" height="62.13" fill="#e4faf9"/><path d="M 248.5 248.51 A 62.13 62.13 0 0 1  310.63 186.38 L 248.5 248.51 A 62.13 62.13 0 0 0 310.63 186.38" fill="#60bab4"/><rect x="310.63" y="186.38" width="62.13" height="62.13" fill="#49afa8"/><path d="M 310.63 248.51 A 62.13 62.13 0 0 0 372.76 186.38 L 310.63 186.38" fill="#49afa6"/><rect x="372.75" y="124.25" width="124.25" height="124.25" fill="#84cbc5"/><path d="M 372.75 124.25 A 124.25 124.25 0 0 0 497 248.5 L 497 124.25" fill="#84cbc8"/><rect x="497" y="124.25" width="124.25" height="124.25" fill="#49afa3"/><path d="M 497 124.25 A 124.25 124.25 0 0 0 621.25 248.5 L 621.25 124.25" fill="#49afa7"/><rect x="621.25" y="124.25" width="124.25" height="124.25" fill="#8fd0ca"/><path d="M 621.25 248.5 A 124.25 124.25 0 0 0 745.5 124.25 L 621.25 124.25" fill="#49afa2"/><rect x="745.5" y="124.25" width="124.25" height="124.25" fill="#49afa9"/><rect x="745.5" y="124.25" width="62.13" height="62.13" fill="#b0e0da"/><path d="M 745.5 186.38 A 62.13 62.13 0 0 1  807.63 124.25 L 807.63 186.38" fill="#c9edeb"/><rect x="807.63" y="124.25" width="62.13" height="62.13" fill="#b9e5e3"/><path d="M 807.63 124.25 A 62.13 62.13 0 0 1 869.76 186.38 L 807.63 186.38" fill="#7ac6c2"/><rect x="745.5" y="186.38" width="62.13" height="62.13" fill="#49afa7"/><path d="M 745.5 186.38 A 62.13 62.13 0 0 1 807.63 248.51 L 745.5 248.51" fill="#9bd6d0"/><rect x="807.63" y="186.38" width="62.13" height="62.13" fill="#a9dddb"/><path d="M 807.63 248.51 A 62.13 62.13 0 0 0 869.76 186.38 L 807.63 186.38" fill="#a4dad4"/><rect x="0" y="248.5" width="124.25" height="124.25" fill="#b1e0da"/><path d="M 0 248.5 A 124.25 124.25 0 0 1 124.25 372.75 L 0 372.75" fill="#49afa2"/><rect x="124.25" y="248.5" width="124.25" height="124.25" fill="#a1d9d3"/><path d="M 124.25 248.5 A 124.25 124.25 0 0 1  248.5 372.75 L 124.25 248.5 A 124.25 124.25 0 0 0 248.5 372.75" fill="#49afa4"/><rect x="248.5" y="248.5" width="124.25" height="124.25" fill="#49afa9"/><rect x="248.5" y="248.5" width="62.13" height="62.13" fill="#49afa9"/><path d="M 248.5 248.5 A 62.13 62.13 0 0 1 310.63 310.63 L 248.5 310.63" fill="#5db8b2"/><rect x="310.63" y="248.5" width="62.13" height="62.13" fill="#49afa3"/><path d="M 310.63 310.63 A 62.13 62.13 0 0 1  372.76 248.5 L 372.76 310.63" fill="#49afa9"/><rect x="248.5" y="310.63" width="62.13" height="62.13" fill="#6dc0bc"/><path d="M 248.5 372.76 A 62.13 62.13 0 0 1  310.63 310.63 L 310.63 372.76" fill="#49afa6"/><rect x="310.63" y="310.63" width="62.13" height="62.13" fill="#98d4ce"/><path d="M 310.63 372.76 A 62.13 62.13 0 0 0 372.76 310.63 L 310.63 310.63" fill="#4cb1ab"/><rect x="372.75" y="248.5" width="124.25" height="124.25" fill="#e9fcfc"/><path d="M 372.75 372.75 A 124.25 124.25 0 0 1  497 248.5 L 497 372.75" fill="#a9dddb"/><rect x="497" y="248.5" width="124.25" height="124.25" fill="#49afa9"/><rect x="497" y="248.5" width="62.13" height="62.13" fill="#a3d9d3"/><path d="M 497 248.5 A 62.13 62.13 0 0 0 559.13 310.63 L 559.13 248.5" fill="#aee0dd"/><rect x="559.13" y="248.5" width="62.13" height="62.13" fill="#d1f0ef"/><path d="M 559.13 248.5 A 62.13 62.13 0 0 1 621.26 310.63 L 559.13 310.63" fill="#49afa7"/><rect x="497" y="310.63" width="62.13" height="62.13" fill="#49afa6"/><path d="M 497 310.63 A 62.13 62.13 0 0 0 559.13 372.76 L 559.13 310.63" fill="#56b5b0"/><rect x="559.13" y="310.63" width="62.13" height="62.13" fill="#67bdb7"/><path d="M 559.13 372.76 A 62.13 62.13 0 0 0 621.26 310.63 L 559.13 310.63" fill="#81cac6"/><rect x="621.25" y="248.5" width="124.25" height="124.25" fill="#b3e1db"/><path d="M 621.25 248.5 A 124.25 124.25 0 0 1  745.5 372.75 L 621.25 248.5 A 124.25 124.25 0 0 0 745.5 372.75" fill="#68beb8"/><rect x="745.5" y="248.5" width="124.25" height="124.25" fill="#49afa9"/><rect x="745.5" y="248.5" width="62.13" height="62.13" fill="#49afa4"/><path d="M 745.5 248.5 A 62.13 62.13 0 0 1 807.63 310.63 L 745.5 310.63" fill="#49afa7"/><rect x="807.63" y="248.5" width="62.13" height="62.13" fill="#49afa5"/><path d="M 807.63 310.63 A 62.13 62.13 0 0 1  869.76 248.5 L 869.76 310.63" fill="#8ccfc9"/><rect x="745.5" y="310.63" width="62.13" height="62.13" fill="#5eb9b4"/><path d="M 745.5 372.76 A 62.13 62.13 0 0 1  807.63 310.63 L 745.5 372.76 A 62.13 62.13 0 0 0 807.63 310.63" fill="#49afa9"/><rect x="807.63" y="310.63" width="62.13" height="62.13" fill="#49afa6"/><path d="M 807.63 310.63 A 62.13 62.13 0 0 1  869.76 372.76 L 807.63 310.63 A 62.13 62.13 0 0 0 869.76 372.76" fill="#49afa5"/><rect x="0" y="372.75" width="124.25" height="124.25" fill="#49afa9"/><rect x="0" y="372.75" width="62.13" height="62.13" fill="#6dc0bc"/><path d="M 0 372.75 A 62.13 62.13 0 0 0 62.13 434.88 L 62.13 372.75" fill="#76c4be"/><rect x="62.13" y="372.75" width="62.13" height="62.13" fill="#a6dbd5"/><path d="M 62.13 434.88 A 62.13 62.13 0 0 0 124.26 372.75 L 62.13 372.75" fill="#49afa9"/><rect x="0" y="434.88" width="62.13" height="62.13" fill="#4cb0ab"/><path d="M 0 434.88 A 62.13 62.13 0 0 1 62.13 497.01 L 0 497.01" fill="#49afa6"/><rect x="62.13" y="434.88" width="62.13" height="62.13" fill="#67bdb7"/><path d="M 62.13 497.01 A 62.13 62.13 0 0 0 124.26 434.88 L 62.13 434.88" fill="#aadedb"/><rect x="124.25" y="372.75" width="124.25" height="124.25" fill="#59b6b0"/><path d="M 124.25 497 A 124.25 124.25 0 0 1  248.5 372.75 L 124.25 497 A 124.25 124.25 0 0 0 248.5 372.75" fill="#73c3bf"/><rect x="248.5" y="372.75" width="124.25" height="124.25" fill="#49afa8"/><path d="M 248.5 372.75 A 124.25 124.25 0 0 0 372.75 497 L 372.75 372.75" fill="#49afa2"/><rect x="372.75" y="372.75" width="124.25" height="124.25" fill="#6cc0ba"/><path d="M 372.75 497 A 124.25 124.25 0 0 1  497 372.75 L 372.75 497 A 124.25 124.25 0 0 0 497 372.75" fill="#71c2bc"/><rect x="497" y="372.75" width="124.25" height="124.25" fill="#49afa9"/><rect x="497" y="372.75" width="62.13" height="62.13" fill="#a7dcd6"/><path d="M 497 434.88 A 62.13 62.13 0 0 1  559.13 372.75 L 497 434.88 A 62.13 62.13 0 0 0 559.13 372.75" fill="#afdfd9"/><rect x="559.13" y="372.75" width="62.13" height="62.13" fill="#82cac6"/><path d="M 559.13 434.88 A 62.13 62.13 0 0 0 621.26 372.75 L 559.13 372.75" fill="#7ac6c0"/><rect x="497" y="434.88" width="62.13" height="62.13" fill="#61bab4"/><path d="M 497 434.88 A 62.13 62.13 0 0 1  559.13 497.01 L 497 434.88 A 62.13 62.13 0 0 0 559.13 497.01" fill="#49afa7"/><rect x="559.13" y="434.88" width="62.13" height="62.13" fill="#49afa4"/><path d="M 559.13 497.01 A 62.13 62.13 0 0 1  621.26 434.88 L 559.13 497.01 A 62.13 62.13 0 0 0 621.26 434.88" fill="#66bdb8"/><rect x="621.25" y="372.75" width="124.25" height="124.25" fill="#9ad6d3"/><path d="M 621.25 497 A 124.25 124.25 0 0 1  745.5 372.75 L 621.25 497 A 124.25 124.25 0 0 0 745.5 372.75" fill="#6fc1bb"/><rect x="745.5" y="372.75" width="124.25" height="124.25" fill="#49afa7"/><path d="M 745.5 372.75 A 124.25 124.25 0 0 1  869.75 497 L 745.5 372.75 A 124.25 124.25 0 0 0 869.75 497" fill="#66bdb7"/></g></svg>