<?xml version="1.0" standalone="no"?><svg xmlns:xlink="http://www.w3.org/1999/xlink" xmlns="http://www.w3.org/2000/svg" viewBox="0 0 1000 555.5592816406102" preserveAspectRatio="xMaxYMax slice"><g transform="scale(1.1178255163794972)"><rect x="0" y="0" width="894.6" height="497" fill="#ffffff"/><rect x="0" y="0" width="99.4" height="99.4" fill="#ffffff"/><rect x="0" y="0" width="49.7" height="49.7" fill="#67bcb1"/><polygon points="49.7,0 49.7,49.7 0,49.7" fill="#7991a3"/><rect x="49.7" y="0" width="49.7" height="49.7" fill="#8299aa"/><polygon points="49.7,0 99.4,49.7 49.7,49.7" fill="#7f97a8"/><rect x="0" y="49.7" width="49.7" height="49.7" fill="#a8d9d2"/><polygon points="0,49.7 49.7,49.7 49.7,99.4" fill="#dcf0ed"/><rect x="49.7" y="49.7" width="49.7" height="49.7" fill="#7cc5bc"/><polygon points="49.7,49.7 99.4,49.7 49.7,99.4" fill="#d6edea"/><rect x="99.4" y="0" width="99.4" height="99.4" fill="#a1d5cf"/><rect x="99.4" y="0" width="99.4" height="99.4" fill="#55b4a8"/><rect x="198.8" y="0" width="99.4" height="99.4" fill="#ffffff"/><rect x="198.8" y="0" width="49.7" height="49.7" fill="#b1bfca"/><polygon points="248.5,0 248.5,49.7 198.8,49.7" fill="#768fa1"/><rect x="248.5" y="0" width="49.7" height="49.7" fill="#56b5a9"/><polygon points="248.5,0 298.2,49.7 248.5,49.7" fill="#375b76"/><rect x="198.8" y="49.7" width="49.7" height="49.7" fill="#cbe8e4"/><polygon points="198.8,49.7 248.5,49.7 198.8,99.4" fill="#80c7be"/><rect x="248.5" y="49.7" width="49.7" height="49.7" fill="#60b9ae"/><polygon points="248.5,49.7 298.2,49.7 298.2,99.4" fill="#4bb0a3"/><rect x="298.2" y="0" width="99.4" height="99.4" fill="#c6d0d8"/><path d="M 298.2 0 A 99.4 99.4 0 0 1 397.6 99.4 L 298.2 99.4" fill="#718b9e"/><rect x="397.6" y="0" width="99.4" height="99.4" fill="#fafbfc"/><rect x="397.6" y="0" width="99.4" height="99.4" fill="#c6e6e2"/><rect x="497" y="0" width="99.4" height="99.4" fill="#ffffff"/><rect x="497" y="0" width="49.7" height="49.7" fill="#d2ebe8"/><polygon points="546.7,0 546.7,49.7 497,49.7" fill="#143f5e"/><rect x="546.7" y="0" width="49.7" height="49.7" fill="#4fb2a5"/><polygon points="546.7,0 596.4000000000001,49.7 546.7,49.7" fill="#95d1c9"/><rect x="497" y="49.7" width="49.7" height="49.7" fill="#96a9b7"/><polygon points="497,49.7 546.7,49.7 497,99.4" fill="#7c94a6"/><rect x="546.7" y="49.7" width="49.7" height="49.7" fill="#80c7be"/><polygon points="546.7,49.7 596.4000000000001,49.7 596.4000000000001,99.4" fill="#79c4ba"/><rect x="596.4" y="0" width="99.4" height="99.4" fill="#a4b5c1"/><polygon points="596.4,0 695.8,0 695.8,99.4" fill="#dff1ef"/><rect x="695.8" y="0" width="99.4" height="99.4" fill="#b9c6cf"/><rect x="695.8" y="0" width="99.4" height="99.4" fill="#feffff"/><rect x="795.2" y="0" width="99.4" height="99.4" fill="#ffffff"/><rect x="795.2" y="0" width="49.7" height="49.7" fill="#648095"/><path d="M 795.2 49.7 A 49.7 49.7 0 0 1 844.9000000000001 0 L 844.9000000000001 12.425 A 37.275000000000006 37.275000000000006 0 0 0 807.625 49.7" fill="#f1f3f5"/><rect x="844.9" y="0" width="49.7" height="49.7" fill="#3e617a"/><path d="M 844.9 0 A 49.7 49.7 0 0 1 894.6 49.7 L 882.175 49.7 A 37.275000000000006 37.275000000000006 0 0 0 844.9 12.425" fill="#476981"/><rect x="795.2" y="49.7" width="49.7" height="49.7" fill="#cde9e5"/><path d="M 795.2 49.7 A 49.7 49.7 0 0 0 844.9000000000001 99.4 L 844.9000000000001 86.97500000000001 A 37.275000000000006 37.275000000000006 0 0 1 807.625 49.7" fill="#9ad3cb"/><rect x="844.9" y="49.7" width="49.7" height="49.7" fill="#b6dfda"/><path d="M 844.9 99.4 A 49.7 49.7 0 0 0 894.6 49.7 L 882.175 49.7 A 37.275000000000006 37.275000000000006 0 0 1 844.9 86.97500000000001" fill="#a8d9d2"/><rect x="0" y="99.4" width="99.4" height="99.4" fill="#ffffff"/><rect x="0" y="99.4" width="49.7" height="49.7" fill="#6b8699"/><polygon points="49.7,99.4 49.7,149.10000000000002 0,149.10000000000002" fill="#eaeef1"/><rect x="49.7" y="99.4" width="49.7" height="49.7" fill="#e3e8ec"/><polygon points="49.7,99.4 99.4,99.4 49.7,149.10000000000002" fill="#d4dce1"/><rect x="0" y="149.1" width="49.7" height="49.7" fill="#2b526e"/><polygon points="0,149.1 49.7,149.1 49.7,198.8" fill="#a0b2be"/><rect x="49.7" y="149.1" width="49.7" height="49.7" fill="#f9fdfc"/><polygon points="49.7,149.1 99.4,198.8 49.7,198.8" fill="#f1f9f8"/><rect x="99.4" y="99.4" width="99.4" height="99.4" fill="#ffffff"/><rect x="99.4" y="99.4" width="49.7" height="49.7" fill="#94d0c8"/><circle cx="124.25" cy="124.25" r="24.85" fill="#4e6e86"/><rect x="149.1" y="99.4" width="49.7" height="49.7" fill="#375b76"/><rect x="149.1" y="99.4" width="49.7" height="49.7" fill="#a4b5c1"/><rect x="99.4" y="149.1" width="49.7" height="49.7" fill="#e1f2f0"/><circle cx="124.25" cy="173.95" r="24.85" fill="#eef8f6"/><rect x="149.1" y="149.1" width="49.7" height="49.7" fill="#ccd6dc"/><rect x="149.1" y="149.1" width="49.7" height="49.7" fill="#fdfefe"/><rect x="198.8" y="99.4" width="99.4" height="99.4" fill="#ffffff"/><rect x="198.8" y="99.4" width="49.7" height="49.7" fill="#bee3de"/><polygon points="248.5,99.4 248.5,149.10000000000002 198.8,149.10000000000002" fill="#50b2a6"/><rect x="248.5" y="99.4" width="49.7" height="49.7" fill="#3e617b"/><polygon points="248.5,99.4 298.2,149.10000000000002 248.5,149.10000000000002" fill="#eaeef0"/><rect x="198.8" y="149.1" width="49.7" height="49.7" fill="#80c7be"/><polygon points="198.8,149.1 248.5,149.1 248.5,198.8" fill="#69bdb2"/><rect x="248.5" y="149.1" width="49.7" height="49.7" fill="#6fc0b6"/><polygon points="248.5,149.1 298.2,149.1 248.5,198.8" fill="#e7f5f3"/><rect x="298.20000000000005" y="99.4" width="99.4" height="99.4" fill="#ffffff"/><rect x="298.2" y="99.4" width="49.7" height="49.7" fill="#d8eeeb"/><polygon points="347.9,99.4 347.9,149.10000000000002 298.2,149.10000000000002" fill="#5ab6aa"/><rect x="347.9" y="99.4" width="49.7" height="49.7" fill="#a0d5ce"/><polygon points="347.9,99.4 397.59999999999997,149.10000000000002 347.9,149.10000000000002" fill="#fcfefd"/><rect x="298.2" y="149.1" width="49.7" height="49.7" fill="#6abdb3"/><polygon points="298.2,149.1 347.9,149.1 347.9,198.8" fill="#638094"/><rect x="347.9" y="149.1" width="49.7" height="49.7" fill="#aedbd6"/><polygon points="347.9,149.1 397.59999999999997,149.1 347.9,198.8" fill="#e4f3f1"/><rect x="397.6" y="99.4" width="99.4" height="99.4" fill="#3e617b"/><path d="M 397.6 99.4 A 99.4 99.4 0 0 1 497 198.8 L 397.6 198.8" fill="#dcf0ed"/><rect x="497" y="99.4" width="99.4" height="99.4" fill="#b1bfc9"/><rect x="497" y="99.4" width="99.4" height="99.4" fill="#93d0c8"/><rect x="596.4" y="99.4" width="99.4" height="99.4" fill="#4a6b83"/><polygon points="695.8,99.4 695.8,198.8 596.4,198.8" fill="#b0bec9"/><rect x="695.8000000000001" y="99.4" width="99.4" height="99.4" fill="#ffffff"/><rect x="695.8" y="99.4" width="49.7" height="49.7" fill="#c9d2da"/><path d="M 695.8 149.10000000000002 A 49.7 49.7 0 0 1  745.5 99.4 L 745.5 149.10000000000002" fill="#54b4a8"/><rect x="745.5" y="99.4" width="49.7" height="49.7" fill="#d0d8df"/><path d="M 745.5 99.4 A 49.7 49.7 0 0 1 795.2 149.10000000000002 L 745.5 149.10000000000002" fill="#ddf0ed"/><rect x="695.8" y="149.1" width="49.7" height="49.7" fill="#9badba"/><path d="M 695.8 149.1 A 49.7 49.7 0 0 0 745.5 198.8 L 745.5 149.1" fill="#527289"/><rect x="745.5" y="149.1" width="49.7" height="49.7" fill="#e5f4f2"/><path d="M 745.5 198.8 A 49.7 49.7 0 0 0 795.2 149.1 L 745.5 149.1" fill="#abdad4"/><rect x="795.2" y="99.4" width="99.4" height="99.4" fill="#ffffff"/><rect x="795.2" y="99.4" width="49.7" height="49.7" fill="#264e6a"/><polygon points="844.9000000000001,99.4 844.9000000000001,149.10000000000002 795.2,149.10000000000002" fill="#55748b"/><rect x="844.9" y="99.4" width="49.7" height="49.7" fill="#204866"/><polygon points="844.9,99.4 894.6,99.4 844.9,149.10000000000002" fill="#073455"/><rect x="795.2" y="149.1" width="49.7" height="49.7" fill="#f6fbfa"/><polygon points="795.2,149.1 844.9000000000001,149.1 844.9000000000001,198.8" fill="#f0f9f7"/><rect x="844.9" y="149.1" width="49.7" height="49.7" fill="#e2f2f0"/><polygon points="844.9,149.1 894.6,198.8 844.9,198.8" fill="#96d1c9"/><rect x="0" y="198.8" width="99.4" height="99.4" fill="#cad3da"/><rect x="0" y="198.8" width="99.4" height="99.4" fill="#15405f"/><rect x="99.4" y="198.8" width="99.4" height="99.4" fill="#ffffff"/><rect x="99.4" y="198.8" width="49.7" height="49.7" fill="#507087"/><path d="M 99.4 198.8 A 49.7 49.7 0 0 0 149.10000000000002 248.5 L 149.10000000000002 198.8" fill="#b1ddd7"/><rect x="149.1" y="198.8" width="49.7" height="49.7" fill="#e3f3f1"/><path d="M 149.1 248.5 A 49.7 49.7 0 0 0 198.8 198.8 L 149.1 198.8" fill="#61baae"/><rect x="99.4" y="248.5" width="49.7" height="49.7" fill="#bdc9d2"/><path d="M 99.4 298.2 A 49.7 49.7 0 0 1  149.10000000000002 248.5 L 149.10000000000002 298.2" fill="#64bbb0"/><rect x="149.1" y="248.5" width="49.7" height="49.7" fill="#bbe1dc"/><path d="M 149.1 248.5 A 49.7 49.7 0 0 1 198.8 298.2 L 149.1 298.2" fill="#d4ece9"/><rect x="198.8" y="198.8" width="99.4" height="99.4" fill="#acbbc6"/><rect x="198.8" y="198.8" width="99.4" height="99.4" fill="#f7f8f9"/><rect x="298.2" y="198.8" width="99.4" height="99.4" fill="#859bac"/><rect x="298.2" y="198.8" width="99.4" height="99.4" fill="#93d0c8"/><rect x="397.6" y="198.8" width="99.4" height="99.4" fill="#ffffff"/><rect x="397.6" y="198.8" width="49.7" height="49.7" fill="#87cac2"/><circle cx="422.45000000000005" cy="223.65" r="24.85" fill="#e1f2f0"/><rect x="447.3" y="198.8" width="49.7" height="49.7" fill="#80c7be"/><rect x="447.3" y="198.8" width="49.7" height="49.7" fill="#def0ee"/><rect x="397.6" y="248.5" width="49.7" height="49.7" fill="#3a5e78"/><circle cx="422.45000000000005" cy="273.35" r="24.85" fill="#d2ebe8"/><rect x="447.3" y="248.5" width="49.7" height="49.7" fill="#55b4a8"/><rect x="447.3" y="248.5" width="49.7" height="49.7" fill="#507087"/><rect x="497" y="198.8" width="99.4" height="99.4" fill="#ffffff"/><rect x="497" y="198.8" width="49.7" height="49.7" fill="#bee2de"/><polygon points="546.7,198.8 546.7,248.5 497,248.5" fill="#94d0c9"/><rect x="546.7" y="198.8" width="49.7" height="49.7" fill="#def0ee"/><polygon points="546.7,198.8 596.4000000000001,248.5 546.7,248.5" fill="#f8fcfb"/><rect x="497" y="248.5" width="49.7" height="49.7" fill="#62baaf"/><polygon points="497,248.5 546.7,248.5 497,298.2" fill="#e8ecef"/><rect x="546.7" y="248.5" width="49.7" height="49.7" fill="#89cbc3"/><polygon points="546.7,248.5 596.4000000000001,248.5 596.4000000000001,298.2" fill="#95a9b7"/><rect x="596.4" y="198.8" width="99.4" height="99.4" fill="#f7fbfb"/><path d="M 596.4 198.8 A 99.4 99.4 0 0 1 695.8 298.20000000000005 L 596.4 298.20000000000005" fill="#bbc7d0"/><rect x="695.8000000000001" y="198.8" width="99.4" height="99.4" fill="#ffffff"/><rect x="695.8" y="198.8" width="49.7" height="49.7" fill="#355974"/><polygon points="745.5,198.8 745.5,248.5 695.8,248.5" fill="#4d6d85"/><rect x="745.5" y="198.8" width="49.7" height="49.7" fill="#e0e5ea"/><polygon points="745.5,198.8 795.2,248.5 745.5,248.5" fill="#6c879a"/><rect x="695.8" y="248.5" width="49.7" height="49.7" fill="#365a75"/><polygon points="695.8,248.5 745.5,248.5 695.8,298.2" fill="#def1ee"/><rect x="745.5" y="248.5" width="49.7" height="49.7" fill="#345974"/><polygon points="745.5,248.5 795.2,248.5 795.2,298.2" fill="#2d536f"/><rect x="795.2" y="198.8" width="99.4" height="99.4" fill="#15405f"/><path d="M 795.2 298.20000000000005 A 99.4 99.4 0 0 1  894.6 198.8 L 795.2 298.20000000000005 A 99.4 99.4 0 0 0 894.6 198.8" fill="#abbac5"/><rect x="0" y="298.2" width="99.4" height="99.4" fill="#82c8bf"/><path d="M 0 397.6 A 99.4 99.4 0 0 1  99.4 298.2 L 0 397.6 A 99.4 99.4 0 0 0 99.4 298.2" fill="#92a6b4"/><rect x="99.4" y="298.20000000000005" width="99.4" height="99.4" fill="#ffffff"/><rect x="99.4" y="298.2" width="49.7" height="49.7" fill="#afbdc8"/><polygon points="149.10000000000002,298.2 149.10000000000002,347.9 99.4,347.9" fill="#5b798f"/><rect x="149.1" y="298.2" width="49.7" height="49.7" fill="#95d1c9"/><polygon points="149.1,298.2 198.8,298.2 149.1,347.9" fill="#9fd5ce"/><rect x="99.4" y="347.9" width="49.7" height="49.7" fill="#68bcb2"/><polygon points="99.4,347.9 149.10000000000002,347.9 149.10000000000002,397.59999999999997" fill="#dfe5e9"/><rect x="149.1" y="347.9" width="49.7" height="49.7" fill="#69bdb2"/><polygon points="149.1,347.9 198.8,397.59999999999997 149.1,397.59999999999997" fill="#c7e6e2"/><rect x="198.8" y="298.20000000000005" width="99.4" height="99.4" fill="#ffffff"/><rect x="198.8" y="298.2" width="49.7" height="49.7" fill="#627f94"/><path d="M 198.8 347.9 A 49.7 49.7 0 0 0 248.5 298.2 L 198.8 298.2" fill="#f2f5f6"/><rect x="248.5" y="298.2" width="49.7" height="49.7" fill="#5a788e"/><path d="M 248.5 298.2 A 49.7 49.7 0 0 0 298.2 347.9 L 298.2 298.2" fill="#71c1b7"/><rect x="198.8" y="347.9" width="49.7" height="49.7" fill="#0c3858"/><path d="M 198.8 347.9 A 49.7 49.7 0 0 1 248.5 397.59999999999997 L 198.8 397.59999999999997" fill="#afbdc8"/><rect x="248.5" y="347.9" width="49.7" height="49.7" fill="#ced7dd"/><path d="M 248.5 397.59999999999997 A 49.7 49.7 0 0 1  298.2 347.9 L 298.2 397.59999999999997" fill="#edf0f3"/><rect x="298.2" y="298.2" width="99.4" height="99.4" fill="#8097a8"/><path d="M 298.2 397.6 A 99.4 99.4 0 0 1  397.6 298.2 L 298.2 397.6 A 99.4 99.4 0 0 0 397.6 298.2" fill="#97d1ca"/><rect x="397.6" y="298.2" width="99.4" height="99.4" fill="#cee9e6"/><path d="M 397.6 397.6 A 99.4 99.4 0 0 1  497 298.2 L 397.6 397.6 A 99.4 99.4 0 0 0 497 298.2" fill="#0f3b5b"/><rect x="497" y="298.2" width="99.4" height="99.4" fill="#56758b"/><path d="M 497 298.2 A 99.4 99.4 0 0 1  596.4 397.6 L 497 298.2 A 99.4 99.4 0 0 0 596.4 397.6" fill="#ffffff"/><rect x="596.4" y="298.2" width="99.4" height="99.4" fill="#8ecdc5"/><path d="M 596.4 397.6 A 99.4 99.4 0 0 1  695.8 298.2 L 596.4 397.6 A 99.4 99.4 0 0 0 695.8 298.2" fill="#e6f4f2"/><rect x="695.8000000000001" y="298.20000000000005" width="99.4" height="99.4" fill="#ffffff"/><rect x="695.8" y="298.2" width="49.7" height="49.7" fill="#d8eeeb"/><path d="M 695.8 347.9 A 49.7 49.7 0 0 1  745.5 298.2 L 745.5 347.9" fill="#4eb1a4"/><rect x="745.5" y="298.2" width="49.7" height="49.7" fill="#97aab8"/><path d="M 745.5 298.2 A 49.7 49.7 0 0 1 795.2 347.9 L 745.5 347.9" fill="#a5d7d1"/><rect x="695.8" y="347.9" width="49.7" height="49.7" fill="#4eb1a4"/><path d="M 695.8 347.9 A 49.7 49.7 0 0 0 745.5 397.59999999999997 L 745.5 347.9" fill="#fcfefe"/><rect x="745.5" y="347.9" width="49.7" height="49.7" fill="#5d7b90"/><path d="M 745.5 397.59999999999997 A 49.7 49.7 0 0 0 795.2 347.9 L 745.5 347.9" fill="#bac7d0"/><rect x="795.2" y="298.2" width="99.4" height="99.4" fill="#64bbb0"/><rect x="795.2" y="298.2" width="99.4" height="99.4" fill="#658195"/><rect x="0" y="397.6" width="99.4" height="99.4" fill="#ffffff"/><rect x="0" y="397.6" width="49.7" height="49.7" fill="#7a92a4"/><path d="M 0 397.6 A 49.7 49.7 0 0 0 49.7 447.3 L 49.7 397.6" fill="#164160"/><rect x="49.7" y="397.6" width="49.7" height="49.7" fill="#3f627b"/><path d="M 49.7 447.3 A 49.7 49.7 0 0 0 99.4 397.6 L 49.7 397.6" fill="#174160"/><rect x="0" y="447.3" width="49.7" height="49.7" fill="#9ad3cc"/><path d="M 0 497 A 49.7 49.7 0 0 1  49.7 447.3 L 49.7 497" fill="#f3faf9"/><rect x="49.7" y="447.3" width="49.7" height="49.7" fill="#1d4664"/><path d="M 49.7 447.3 A 49.7 49.7 0 0 1 99.4 497 L 49.7 497" fill="#b7dfda"/><rect x="99.4" y="397.6" width="99.4" height="99.4" fill="#a6b6c2"/><rect x="99.4" y="397.6" width="99.4" height="99.4" fill="#a3d7d0"/><rect x="198.8" y="397.6" width="99.4" height="99.4" fill="#ffffff"/><rect x="198.8" y="397.6" width="49.7" height="49.7" fill="#c0e3df"/><circle cx="223.65" cy="422.45000000000005" r="24.85" fill="#476881"/><rect x="248.5" y="397.6" width="49.7" height="49.7" fill="#eaf6f4"/><rect x="248.5" y="397.6" width="49.7" height="49.7" fill="#174160"/><rect x="198.8" y="447.3" width="49.7" height="49.7" fill="#d3dbe1"/><circle cx="223.65" cy="472.15000000000003" r="24.85" fill="#eef1f4"/><rect x="248.5" y="447.3" width="49.7" height="49.7" fill="#d8dfe4"/><rect x="248.5" y="447.3" width="49.7" height="49.7" fill="#85c9c0"/><rect x="298.20000000000005" y="397.6" width="99.4" height="99.4" fill="#ffffff"/><rect x="298.2" y="397.6" width="49.7" height="49.7" fill="#7f96a7"/><polygon points="347.9,397.6 347.9,447.3 298.2,447.3" fill="#d2dae0"/><rect x="347.9" y="397.6" width="49.7" height="49.7" fill="#6abeb3"/><polygon points="347.9,397.6 397.59999999999997,397.6 347.9,447.3" fill="#bde2dd"/><rect x="298.2" y="447.3" width="49.7" height="49.7" fill="#57b5a9"/><polygon points="298.2,447.3 347.9,447.3 347.9,497" fill="#77c3b9"/><rect x="347.9" y="447.3" width="49.7" height="49.7" fill="#c9e7e4"/><polygon points="347.9,447.3 397.59999999999997,497 347.9,497" fill="#abdad4"/><rect x="397.6" y="397.6" width="99.4" height="99.4" fill="#093656"/><path d="M 397.6 497 A 99.4 99.4 0 0 1  497 397.6 L 397.6 497 A 99.4 99.4 0 0 0 497 397.6" fill="#acdad4"/><rect x="497" y="397.6" width="99.4" height="99.4" fill="#ffffff"/><rect x="497" y="397.6" width="49.7" height="49.7" fill="#2b526e"/><circle cx="521.85" cy="422.45000000000005" r="24.85" fill="#1c4563"/><rect x="546.7" y="397.6" width="49.7" height="49.7" fill="#81c8bf"/><rect x="546.7" y="397.6" width="49.7" height="49.7" fill="#8097a8"/><rect x="497" y="447.3" width="49.7" height="49.7" fill="#365b76"/><circle cx="521.85" cy="472.15000000000003" r="24.85" fill="#aabac5"/><rect x="546.7" y="447.3" width="49.7" height="49.7" fill="#254d6a"/><rect x="546.7" y="447.3" width="49.7" height="49.7" fill="#083556"/><rect x="596.4" y="397.6" width="99.4" height="99.4" fill="#aabac5"/><path d="M 596.4 497 A 99.4 99.4 0 0 0 695.8 397.6 L 596.4 397.6" fill="#daefec"/><rect x="695.8" y="397.6" width="99.4" height="99.4" fill="#ffffff"/><path d="M 695.8 497 A 99.4 99.4 0 0 0 795.1999999999999 397.6 L 695.8 397.6" fill="#94d0c8"/><rect x="795.2" y="397.6" width="99.4" height="99.4" fill="#afdcd6"/><rect x="795.2" y="397.6" width="99.4" height="99.4" fill="#9ad3cb"/></g></svg>