<svg xmlns="http://www.w3.org/2000/svg" viewBox="0 0 500 500"><defs><style>.a,.b{fill:none;stroke-miterlimit:10;stroke-width:10px;}.a{stroke:#49afa2;}.b{stroke:#073455;}.c{fill:#073455;}.d{fill:#49afa2;}</style></defs><title>emil-sumiratArtboard 3</title><rect class="a" x="74.62" y="189.46" width="350.77" height="202.69" rx="32.43"/><path class="a" d="M174.37,220.7a16.28,16.28,0,0,1,.32,3.22v52.31a16,16,0,0,1-16,16H128.54a16,16,0,0,1-16-16V223.92"/><path class="b" d="M237.15,255.92h30.15a16,16,0,0,1,16,16V392.15a0,0,0,0,1,0,0H221.15a0,0,0,0,1,0,0V271.92A16,16,0,0,1,237.15,255.92Z"/><path class="a" d="M391.92,223.92v52.31a16,16,0,0,1-16,16H345.77a16,16,0,0,1-16-16V223.92A16,16,0,0,1,332.5,215"/><path class="a" d="M115.62,106.38H388.85a69.54,69.54,0,0,1,69.54,69.54v13.54a0,0,0,0,1,0,0H46.08a0,0,0,0,1,0,0V175.92a69.54,69.54,0,0,1,69.54-69.54Z"/><path class="b" d="M144.54,106.38H359.92a69.54,69.54,0,0,1,69.54,69.54v13.54a0,0,0,0,1,0,0H75a0,0,0,0,1,0,0V175.92a69.54,69.54,0,0,1,69.54-69.54Z"/><path class="a" d="M174.69,106.38H329.77a69.54,69.54,0,0,1,69.54,69.54v13.54a0,0,0,0,1,0,0H105.15a0,0,0,0,1,0,0V175.92a69.54,69.54,0,0,1,69.54-69.54Z"/><path class="a" d="M417.15,189.46h41.23a0,0,0,0,1,0,0v15.08a20.62,20.62,0,0,1-20.62,20.62h0a20.62,20.62,0,0,1-20.62-20.62V189.46a0,0,0,0,1,0,0Z"/><path class="b" d="M375.92,190.08h41.23a0,0,0,0,1,0,0v15.08a20.62,20.62,0,0,1-20.62,20.62h0a20.62,20.62,0,0,1-20.62-20.62V190.08A0,0,0,0,1,375.92,190.08Z"/><path class="a" d="M334.69,190.08h41.23a0,0,0,0,1,0,0v15.08a20.62,20.62,0,0,1-20.62,20.62h0a20.62,20.62,0,0,1-20.62-20.62V190.08A0,0,0,0,1,334.69,190.08Z"/><path class="b" d="M293.46,190.08h41.23a0,0,0,0,1,0,0v15.08a20.62,20.62,0,0,1-20.62,20.62h0a20.62,20.62,0,0,1-20.62-20.62V190.08A0,0,0,0,1,293.46,190.08Z"/><path class="a" d="M252.23,190.08h41.23a0,0,0,0,1,0,0v15.08a20.62,20.62,0,0,1-20.62,20.62h0a20.62,20.62,0,0,1-20.62-20.62V190.08a0,0,0,0,1,0,0Z"/><path class="b" d="M211,190.08h41.23a0,0,0,0,1,0,0v15.08a20.62,20.62,0,0,1-20.62,20.62h0A20.62,20.62,0,0,1,211,205.15V190.08A0,0,0,0,1,211,190.08Z"/><path class="a" d="M169.77,192.3H211a0,0,0,0,1,0,0v15.08A20.62,20.62,0,0,1,190.38,228h0a20.62,20.62,0,0,1-20.62-20.62V192.3a0,0,0,0,1,0,0Z"/><path class="b" d="M128.54,192.3h41.23a0,0,0,0,1,0,0v15.08A20.62,20.62,0,0,1,149.15,228h0a20.62,20.62,0,0,1-20.62-20.62V192.3A0,0,0,0,1,128.54,192.3Z"/><path class="a" d="M87.31,190.08h41.23a0,0,0,0,1,0,0v15.08a20.62,20.62,0,0,1-20.62,20.62h0a20.62,20.62,0,0,1-20.62-20.62V190.08A0,0,0,0,1,87.31,190.08Z"/><path class="b" d="M46.08,190.08H87.31a0,0,0,0,1,0,0v15.08a20.62,20.62,0,0,1-20.62,20.62h0a20.62,20.62,0,0,1-20.62-20.62V190.08a0,0,0,0,1,0,0Z"/><rect class="c" x="116.03" y="345.36" width="40.62" height="44.72"/><rect class="d" x="156.64" y="359.31" width="30.77" height="30.77"/></svg>