<svg xmlns="http://www.w3.org/2000/svg" viewBox="0 0 500 500"><defs><style>.a,.b{fill:none;stroke-miterlimit:10;stroke-width:10px;}.a{stroke:#49afa2;}.b{stroke:#073455;}</style></defs><title>emil-sumiratArtboard 2</title><path class="a" d="M248.19,323.31a74.5,74.5,0,1,1,74.5-74.5,74.51,74.51,0,0,1-74.5,74.5"/><path class="a" d="M272.75,155.88a96.12,96.12,0,0,1-.25,185.92"/><path class="a" d="M223.88,341.8a96.13,96.13,0,0,1-.24-185.92"/><path class="b" d="M248.19,323.31a74.5,74.5,0,0,1,0-149"/><circle class="b" cx="380.76" cy="134.51" r="36.47"/><circle class="a" cx="366.85" cy="312.57" r="22.57"/><circle class="a" cx="129.53" cy="312.57" r="22.57"/><circle class="a" cx="248.19" cy="120.61" r="22.57"/><circle class="b" cx="108.85" cy="134.51" r="36.47"/><circle class="b" cx="250" cy="408.08" r="36.47"/></svg>