<svg xmlns="http://www.w3.org/2000/svg" viewBox="0 0 500 500"><defs><style>.a,.b,.c{fill:none;stroke-miterlimit:10;stroke-width:10px;}.a{stroke:#49afa2;}.b{stroke:#073455;}.c{stroke:#6fc1b5;}.d{fill:#6fc1b5;}.e{fill:#195275;}.f{fill:#073455;}.g{fill:#49afa2;}.h{fill:#36998b;}</style></defs><title>emil-sumiratArtboard 1</title><path class="a" d="M374.08,222.15V414.69A20.31,20.31,0,0,1,353.77,435H150.69a20.31,20.31,0,0,1-20.31-20.31v-204"/><path class="b" d="M352.38,120.08a55.2,55.2,0,0,0-11.28,1.16A92.79,92.79,0,0,0,163.81,102,59.77,59.77,0,0,0,130.38,215a59.84,59.84,0,0,0,48.7,1.94l24.9,1a92.91,92.91,0,0,0,84.91,3.38l36.27,1.44a54.92,54.92,0,1,0,27.22-102.62Z"/><path class="a" d="M199,186.35a82,82,0,0,0,103.37-1.08"/><path class="a" d="M307.05,114.8A57.17,57.17,0,0,0,197.81,103"/><rect class="b" x="153.46" y="243.92" width="37.85" height="158.77" rx="11.08"/><rect class="b" x="212.81" y="317.77" width="37.85" height="84.92" rx="11.08"/><rect class="c" x="278.08" y="312.69" width="60.92" height="122.31" rx="11.08"/><path class="d" d="M338.69,294.08H324.54a14.77,14.77,0,0,1,14.77,14.77v3.84h14.15v-3.84A14.77,14.77,0,0,0,338.69,294.08Z"/><path class="d" d="M292.54,294.08H278.38a14.76,14.76,0,0,0-14.76,14.77v3.84h14.15v-3.84A14.77,14.77,0,0,1,292.54,294.08Z"/><path class="e" d="M324.54,294.08h-32a14.77,14.77,0,0,0-14.77,14.77v3.84h61.54v-3.84A14.77,14.77,0,0,0,324.54,294.08Z"/><path class="f" d="M320.06,294.08H297c-5.87,0-10.64,6.61-10.64,14.77v3.84h44.31v-3.84C330.69,300.69,325.93,294.08,320.06,294.08Z"/><path class="g" d="M339.31,113.36a41.2,41.2,0,0,0,1.25,10.12,36.46,36.46,0,0,0,32.23-50.87A41.55,41.55,0,0,0,339.31,113.36Z"/><path class="g" d="M73.86,237.47a41.68,41.68,0,0,0,1.25,10.12,36.46,36.46,0,0,0,32.23-50.87A41.54,41.54,0,0,0,73.86,237.47Z"/><rect class="h" x="375.77" y="388.23" width="27.85" height="46.77"/><rect class="g" x="375.77" y="388.23" width="21.33" height="46.77"/><rect class="f" x="375.77" y="388.23" width="27.85" height="9.38"/><rect class="g" x="403.62" y="360.23" width="30.46" height="74.77"/><rect class="f" x="403.62" y="360.23" width="30.46" height="11.38"/></svg>